<mxfile host="app.diagrams.net" agent="Mozilla/5.0 (Windows NT 10.0; Win64; x64) AppleWebKit/537.36 (KHTML, like Gecko) Chrome/134.0.0.0 YaBrowser/25.4.0.0 Safari/537.36" version="27.1.3">
  <diagram name="Страница — 1" id="kkJoZpAzDg4ccrZbhGlz">
    <mxGraphModel dx="1426" dy="824" grid="1" gridSize="10" guides="1" tooltips="1" connect="1" arrows="1" fold="1" page="1" pageScale="1" pageWidth="827" pageHeight="1169" math="0" shadow="0">
      <root>
        <mxCell id="0" />
        <mxCell id="1" parent="0" />
        <mxCell id="AbEXiIxdGSLs7yJSsDKE-15" style="edgeStyle=none;curved=1;rounded=0;orthogonalLoop=1;jettySize=auto;html=1;fontSize=12;startSize=8;endSize=8;" edge="1" parent="1" source="AbEXiIxdGSLs7yJSsDKE-2" target="AbEXiIxdGSLs7yJSsDKE-1">
          <mxGeometry relative="1" as="geometry" />
        </mxCell>
        <mxCell id="AbEXiIxdGSLs7yJSsDKE-1" value="Фонд" style="swimlane;childLayout=stackLayout;horizontal=1;startSize=50;horizontalStack=0;rounded=1;fontSize=14;fontStyle=0;strokeWidth=2;resizeParent=0;resizeLast=1;shadow=0;dashed=0;align=center;arcSize=4;whiteSpace=wrap;html=1;" vertex="1" parent="1">
          <mxGeometry x="290" y="20" width="160" height="120" as="geometry" />
        </mxCell>
        <mxCell id="AbEXiIxdGSLs7yJSsDKE-2" value="&lt;div&gt;&lt;br&gt;&lt;/div&gt;&lt;div&gt;#ID_фонда&lt;/div&gt;" style="align=left;strokeColor=none;fillColor=none;spacingLeft=4;spacingRight=4;fontSize=12;verticalAlign=top;resizable=0;rotatable=0;part=1;html=1;whiteSpace=wrap;" vertex="1" parent="AbEXiIxdGSLs7yJSsDKE-1">
          <mxGeometry y="50" width="160" height="70" as="geometry" />
        </mxCell>
        <mxCell id="AbEXiIxdGSLs7yJSsDKE-3" value="Вид фонда" style="swimlane;childLayout=stackLayout;horizontal=1;startSize=50;horizontalStack=0;rounded=1;fontSize=14;fontStyle=0;strokeWidth=2;resizeParent=0;resizeLast=1;shadow=0;dashed=0;align=center;arcSize=4;whiteSpace=wrap;html=1;" vertex="1" parent="1">
          <mxGeometry x="30" y="20" width="160" height="120" as="geometry" />
        </mxCell>
        <mxCell id="AbEXiIxdGSLs7yJSsDKE-4" value="&lt;div&gt;&lt;br&gt;&lt;/div&gt;&lt;div&gt;#ID_вида_фонда&lt;/div&gt;" style="align=left;strokeColor=none;fillColor=none;spacingLeft=4;spacingRight=4;fontSize=12;verticalAlign=top;resizable=0;rotatable=0;part=1;html=1;whiteSpace=wrap;" vertex="1" parent="AbEXiIxdGSLs7yJSsDKE-3">
          <mxGeometry y="50" width="160" height="70" as="geometry" />
        </mxCell>
        <mxCell id="AbEXiIxdGSLs7yJSsDKE-5" value="Инвестор" style="swimlane;childLayout=stackLayout;horizontal=1;startSize=50;horizontalStack=0;rounded=1;fontSize=14;fontStyle=0;strokeWidth=2;resizeParent=0;resizeLast=1;shadow=0;dashed=0;align=center;arcSize=4;whiteSpace=wrap;html=1;" vertex="1" parent="1">
          <mxGeometry x="30" y="200" width="160" height="120" as="geometry" />
        </mxCell>
        <mxCell id="AbEXiIxdGSLs7yJSsDKE-6" value="&lt;div&gt;&lt;br&gt;&lt;/div&gt;&lt;div&gt;#ID_инвестора&lt;/div&gt;" style="align=left;strokeColor=none;fillColor=none;spacingLeft=4;spacingRight=4;fontSize=12;verticalAlign=top;resizable=0;rotatable=0;part=1;html=1;whiteSpace=wrap;" vertex="1" parent="AbEXiIxdGSLs7yJSsDKE-5">
          <mxGeometry y="50" width="160" height="70" as="geometry" />
        </mxCell>
        <mxCell id="AbEXiIxdGSLs7yJSsDKE-7" value="Ценная бумага" style="swimlane;childLayout=stackLayout;horizontal=1;startSize=50;horizontalStack=0;rounded=1;fontSize=14;fontStyle=0;strokeWidth=2;resizeParent=0;resizeLast=1;shadow=0;dashed=0;align=center;arcSize=4;whiteSpace=wrap;html=1;" vertex="1" parent="1">
          <mxGeometry x="560" y="20" width="160" height="120" as="geometry" />
        </mxCell>
        <mxCell id="AbEXiIxdGSLs7yJSsDKE-8" value="&lt;div&gt;&lt;br&gt;&lt;/div&gt;&lt;div&gt;#ID_ценной_бумаги&lt;/div&gt;" style="align=left;strokeColor=none;fillColor=none;spacingLeft=4;spacingRight=4;fontSize=12;verticalAlign=top;resizable=0;rotatable=0;part=1;html=1;whiteSpace=wrap;" vertex="1" parent="AbEXiIxdGSLs7yJSsDKE-7">
          <mxGeometry y="50" width="160" height="70" as="geometry" />
        </mxCell>
        <mxCell id="AbEXiIxdGSLs7yJSsDKE-9" value="Позиция инвестора" style="swimlane;childLayout=stackLayout;horizontal=1;startSize=50;horizontalStack=0;rounded=1;fontSize=14;fontStyle=0;strokeWidth=2;resizeParent=0;resizeLast=1;shadow=0;dashed=0;align=center;arcSize=4;whiteSpace=wrap;html=1;" vertex="1" parent="1">
          <mxGeometry x="290" y="200" width="160" height="120" as="geometry" />
        </mxCell>
        <mxCell id="AbEXiIxdGSLs7yJSsDKE-10" value="&lt;div&gt;&lt;br&gt;&lt;/div&gt;&lt;div&gt;#ID_позиции_инвестора&lt;/div&gt;" style="align=left;strokeColor=none;fillColor=none;spacingLeft=4;spacingRight=4;fontSize=12;verticalAlign=top;resizable=0;rotatable=0;part=1;html=1;whiteSpace=wrap;" vertex="1" parent="AbEXiIxdGSLs7yJSsDKE-9">
          <mxGeometry y="50" width="160" height="70" as="geometry" />
        </mxCell>
        <mxCell id="AbEXiIxdGSLs7yJSsDKE-11" value="СЧА" style="swimlane;childLayout=stackLayout;horizontal=1;startSize=50;horizontalStack=0;rounded=1;fontSize=14;fontStyle=0;strokeWidth=2;resizeParent=0;resizeLast=1;shadow=0;dashed=0;align=center;arcSize=4;whiteSpace=wrap;html=1;" vertex="1" parent="1">
          <mxGeometry x="290" y="360" width="160" height="120" as="geometry" />
        </mxCell>
        <mxCell id="AbEXiIxdGSLs7yJSsDKE-12" value="&lt;div&gt;&lt;br&gt;&lt;/div&gt;&lt;div&gt;#ID_СЧА&lt;/div&gt;" style="align=left;strokeColor=none;fillColor=none;spacingLeft=4;spacingRight=4;fontSize=12;verticalAlign=top;resizable=0;rotatable=0;part=1;html=1;whiteSpace=wrap;" vertex="1" parent="AbEXiIxdGSLs7yJSsDKE-11">
          <mxGeometry y="50" width="160" height="70" as="geometry" />
        </mxCell>
        <mxCell id="AbEXiIxdGSLs7yJSsDKE-13" value="Эмитент" style="swimlane;childLayout=stackLayout;horizontal=1;startSize=50;horizontalStack=0;rounded=1;fontSize=14;fontStyle=0;strokeWidth=2;resizeParent=0;resizeLast=1;shadow=0;dashed=0;align=center;arcSize=4;whiteSpace=wrap;html=1;" vertex="1" parent="1">
          <mxGeometry x="560" y="240" width="160" height="120" as="geometry" />
        </mxCell>
        <mxCell id="AbEXiIxdGSLs7yJSsDKE-14" value="&lt;div&gt;&lt;br&gt;&lt;/div&gt;&lt;div&gt;#ID_эмитента&lt;/div&gt;" style="align=left;strokeColor=none;fillColor=none;spacingLeft=4;spacingRight=4;fontSize=12;verticalAlign=top;resizable=0;rotatable=0;part=1;html=1;whiteSpace=wrap;" vertex="1" parent="AbEXiIxdGSLs7yJSsDKE-13">
          <mxGeometry y="50" width="160" height="70" as="geometry" />
        </mxCell>
        <mxCell id="AbEXiIxdGSLs7yJSsDKE-17" value="" style="edgeStyle=elbowEdgeStyle;fontSize=12;html=1;endArrow=ERmany;rounded=0;startSize=8;endSize=8;exitX=1;exitY=0.5;exitDx=0;exitDy=0;entryX=0;entryY=0.5;entryDx=0;entryDy=0;" edge="1" parent="1" source="AbEXiIxdGSLs7yJSsDKE-4" target="AbEXiIxdGSLs7yJSsDKE-2">
          <mxGeometry width="100" height="100" relative="1" as="geometry">
            <mxPoint x="260" y="220" as="sourcePoint" />
            <mxPoint x="350" y="185" as="targetPoint" />
          </mxGeometry>
        </mxCell>
        <mxCell id="AbEXiIxdGSLs7yJSsDKE-21" value="" style="edgeStyle=elbowEdgeStyle;fontSize=12;html=1;endArrow=ERmany;rounded=0;startSize=8;endSize=8;exitX=1;exitY=0.5;exitDx=0;exitDy=0;entryX=1;entryY=0.414;entryDx=0;entryDy=0;entryPerimeter=0;" edge="1" parent="1" source="AbEXiIxdGSLs7yJSsDKE-14" target="AbEXiIxdGSLs7yJSsDKE-8">
          <mxGeometry width="100" height="100" relative="1" as="geometry">
            <mxPoint x="670" y="520" as="sourcePoint" />
            <mxPoint x="770" y="520" as="targetPoint" />
            <Array as="points">
              <mxPoint x="780" y="320" />
            </Array>
          </mxGeometry>
        </mxCell>
        <mxCell id="AbEXiIxdGSLs7yJSsDKE-22" value="" style="edgeStyle=elbowEdgeStyle;fontSize=12;html=1;endArrow=ERmany;rounded=0;startSize=8;endSize=8;exitX=1;exitY=0.25;exitDx=0;exitDy=0;startArrow=ERmany;startFill=0;entryX=0;entryY=0.25;entryDx=0;entryDy=0;" edge="1" parent="1" source="AbEXiIxdGSLs7yJSsDKE-2" target="AbEXiIxdGSLs7yJSsDKE-8">
          <mxGeometry width="100" height="100" relative="1" as="geometry">
            <mxPoint x="200" y="115" as="sourcePoint" />
            <mxPoint x="300" y="115" as="targetPoint" />
          </mxGeometry>
        </mxCell>
        <mxCell id="AbEXiIxdGSLs7yJSsDKE-23" value="" style="edgeStyle=elbowEdgeStyle;fontSize=12;html=1;endArrow=ERmany;rounded=0;startSize=8;endSize=8;exitX=1;exitY=0.75;exitDx=0;exitDy=0;entryX=0;entryY=0.75;entryDx=0;entryDy=0;" edge="1" parent="1" source="AbEXiIxdGSLs7yJSsDKE-6" target="AbEXiIxdGSLs7yJSsDKE-10">
          <mxGeometry width="100" height="100" relative="1" as="geometry">
            <mxPoint x="520" y="500" as="sourcePoint" />
            <mxPoint x="560" y="500" as="targetPoint" />
          </mxGeometry>
        </mxCell>
        <mxCell id="AbEXiIxdGSLs7yJSsDKE-24" value="" style="edgeStyle=elbowEdgeStyle;fontSize=12;html=1;endArrow=ERmany;rounded=0;startSize=8;endSize=8;exitX=1;exitY=0.75;exitDx=0;exitDy=0;entryX=0.988;entryY=0.4;entryDx=0;entryDy=0;entryPerimeter=0;" edge="1" parent="1" source="AbEXiIxdGSLs7yJSsDKE-2" target="AbEXiIxdGSLs7yJSsDKE-12">
          <mxGeometry width="100" height="100" relative="1" as="geometry">
            <mxPoint x="480" y="419.5" as="sourcePoint" />
            <mxPoint x="580" y="419.5" as="targetPoint" />
            <Array as="points">
              <mxPoint x="500" y="280" />
            </Array>
          </mxGeometry>
        </mxCell>
        <mxCell id="AbEXiIxdGSLs7yJSsDKE-25" value="" style="edgeStyle=elbowEdgeStyle;fontSize=12;html=1;endArrow=ERmany;rounded=0;startSize=8;endSize=8;exitX=0;exitY=0.75;exitDx=0;exitDy=0;entryX=0;entryY=0.25;entryDx=0;entryDy=0;" edge="1" parent="1" source="AbEXiIxdGSLs7yJSsDKE-2" target="AbEXiIxdGSLs7yJSsDKE-10">
          <mxGeometry width="100" height="100" relative="1" as="geometry">
            <mxPoint x="200" y="313" as="sourcePoint" />
            <mxPoint x="300" y="313" as="targetPoint" />
            <Array as="points">
              <mxPoint x="240" y="200" />
            </Array>
          </mxGeometry>
        </mxCell>
      </root>
    </mxGraphModel>
  </diagram>
</mxfile>
